<?xml version="1.0" standalone="no"?>
<!DOCTYPE svg PUBLIC "-//W3C//DTD SVG 20010904//EN"
 "http://www.w3.org/TR/2001/REC-SVG-20010904/DTD/svg10.dtd">
<svg version="1.0" xmlns="http://www.w3.org/2000/svg"
 width="1279.000000pt" height="735.000000pt" viewBox="0 0 1279.000000 735.000000"
 preserveAspectRatio="xMidYMid meet">

<g transform="translate(0.000000,735.000000) scale(0.100000,-0.100000)"
fill="#000000" stroke="none">
<path d="M1100 5525 l-85 -85 -80 0 -80 0 -253 -253 -252 -252 0 -130 0 -130
-90 -90 -90 -90 0 -125 0 -125 -85 -85 -85 -85 0 -440 0 -440 89 -338 88 -338
51 -52 52 -53 0 -69 0 -70 188 -188 187 -187 124 0 124 0 68 -65 67 -65 284 0
283 1 128 125 127 125 0 334 0 335 95 0 95 0 0 -136 0 -135 51 -55 c36 -37 53
-64 54 -84 4 -41 30 -78 69 -97 111 -52 209 87 127 179 -26 29 -36 33 -80 34
-42 0 -56 5 -81 29 l-30 29 0 308 c0 202 4 308 10 308 16 0 50 62 50 91 0 39
-41 92 -80 105 -72 24 -150 -31 -150 -106 0 -32 7 -48 35 -79 l36 -39 -3 -124
-3 -123 -95 0 -95 0 -3 328 -2 327 131 0 131 0 77 75 c64 62 83 75 110 75 87
0 142 108 89 175 -26 33 -82 58 -110 49 -16 -5 -33 7 -79 52 l-59 58 0 149 c0
147 0 149 25 169 13 10 30 36 36 57 36 120 -141 199 -204 91 -28 -46 -22 -103
13 -138 l30 -30 0 -169 0 -169 70 -69 c66 -66 70 -72 70 -115 0 -42 -4 -50
-58 -103 l-58 -57 -107 0 -107 0 0 88 c0 73 -3 92 -18 105 -17 15 -68 17 -529
17 -481 0 -511 -1 -526 -18 -15 -16 -17 -54 -17 -333 l0 -315 38 -36 c31 -30
65 -45 199 -89 139 -46 163 -51 178 -39 15 12 4 25 -99 129 l-116 116 0 193 0
192 345 0 345 0 0 -190 0 -190 -88 0 -88 0 -47 48 c-28 28 -47 57 -47 70 0
115 -163 153 -216 51 -24 -48 -18 -87 20 -125 32 -32 52 -39 105 -34 16 1 37
-12 67 -41 l44 -43 0 -126 0 -126 -53 -52 c-37 -36 -59 -51 -70 -46 -25 9 -84
-14 -107 -43 -13 -17 -20 -41 -20 -70 0 -38 5 -50 34 -79 28 -28 42 -34 76
-34 34 0 48 6 76 34 27 27 34 42 34 73 0 34 7 46 65 103 l64 64 3 135 3 136
73 3 72 3 0 -493 0 -494 -63 -62 -63 -62 -107 0 -107 0 0 78 c0 77 0 78 38
115 30 30 45 37 76 37 30 0 45 7 72 34 29 29 34 41 34 79 0 56 -27 93 -80 107
-76 20 -140 -28 -140 -105 0 -31 -6 -47 -25 -65 l-25 -24 -109 107 -108 107
-95 0 -94 0 -48 105 c-43 92 -47 109 -37 131 42 93 -43 191 -139 160 -39 -12
-80 -66 -80 -103 0 -40 32 -84 75 -103 37 -16 44 -25 94 -136 30 -65 61 -127
69 -136 13 -15 32 -18 116 -18 l101 0 103 -103 102 -102 0 -78 0 -77 -58 0
c-57 0 -58 0 -117 60 l-59 60 -126 0 -125 0 -128 128 -127 127 0 70 0 69 -66
67 -66 66 -74 298 c-41 164 -74 306 -72 316 3 16 13 13 91 -23 62 -29 87 -46
87 -59 0 -30 58 -88 94 -94 105 -20 179 107 108 183 -35 38 -73 48 -120 34
-33 -10 -44 -8 -126 29 -50 22 -101 47 -114 55 l-22 14 0 307 0 306 85 86 c76
78 85 91 85 125 l0 37 81 -3 82 -3 34 -89 34 -89 -91 -92 -90 -92 0 -65 c0
-47 -4 -69 -16 -79 -24 -20 -44 -65 -44 -99 0 -20 11 -42 33 -67 30 -32 39
-36 82 -36 43 0 52 4 82 36 22 25 33 47 33 67 0 34 -20 79 -44 99 -11 9 -16
30 -16 65 l0 51 165 165 165 165 0 182 0 182 148 -85 c146 -84 148 -86 160
-130 9 -32 21 -50 45 -64 102 -63 221 48 160 150 -27 46 -71 61 -148 50 -11
-2 -104 46 -214 110 -169 98 -198 111 -220 104 l-26 -9 -3 -221 -2 -220 -44
-43 -43 -42 -33 83 c-45 114 -50 118 -171 118 l-99 0 0 33 c0 28 13 46 90 122
l90 90 0 135 0 135 198 198 197 197 85 0 85 0 80 80 80 80 142 0 c118 0 143 3
143 15 0 8 -50 53 -111 100 l-111 85 -77 0 -76 0 -85 -85z m214 -1157 c14 -23
-3 -52 -33 -56 -42 -6 -67 38 -39 66 17 17 58 11 72 -10z m820 -10 c24 -40
-44 -80 -71 -42 -17 23 -16 29 3 49 20 20 53 16 68 -7z m206 -628 c8 -14 8
-26 0 -40 -19 -35 -80 -20 -80 20 0 40 61 55 80 20z m-1836 -66 c21 -20 20
-30 -3 -53 -25 -25 -59 -17 -67 15 -12 46 37 72 70 38z m810 -346 c15 -24 -3
-52 -37 -56 -33 -4 -53 28 -37 59 14 25 58 23 74 -3z m-779 -128 c9 -15 -4
-47 -22 -54 -46 -18 -81 35 -43 66 22 18 50 13 65 -12z m1595 -4 c6 -8 10 -25
8 -38 -2 -19 -9 -23 -38 -23 -29 0 -36 4 -38 23 -4 28 14 52 38 52 10 0 23 -7
30 -14z m-1422 -428 c30 -30 0 -75 -43 -64 -19 5 -25 13 -25 35 0 15 3 31 7
34 11 11 48 8 61 -5z m590 -80 c30 -30 0 -75 -42 -64 -29 7 -40 31 -26 57 12
21 50 25 68 7z m168 -354 c12 -46 -37 -72 -70 -38 -21 20 -20 30 3 53 25 25
59 17 67 -15z m825 -4 c28 -16 25 -58 -6 -72 -21 -9 -28 -8 -45 7 -24 22 -25
33 -3 57 19 21 27 22 54 8z"/>
<path d="M1787 5482 l-127 -127 0 -378 c0 -207 -3 -377 -7 -377 -3 0 -51 12
-105 26 l-98 27 0 161 1 161 29 29 c50 49 51 106 2 158 -71 76 -192 24 -192
-82 0 -33 6 -48 30 -72 28 -27 30 -35 30 -99 0 -38 -3 -69 -6 -69 -4 0 -42 10
-85 21 -68 19 -79 25 -90 52 -36 86 -163 88 -204 1 -47 -99 58 -197 156 -146
36 18 37 18 130 -7 l94 -26 3 -73 c3 -86 7 -89 127 -122 44 -12 104 -28 133
-37 l52 -14 0 -84 0 -84 -166 -130 -167 -131 -90 0 c-83 0 -90 2 -109 25 -10
13 -37 29 -58 35 -76 20 -145 -33 -145 -113 0 -32 7 -45 38 -73 50 -46 101
-47 150 -4 34 29 37 30 140 30 l105 0 58 44 c33 24 100 75 149 114 l90 71 3
-72 c4 -96 15 -107 102 -107 104 0 100 -11 100 292 l0 256 140 57 c77 32 140
58 141 59 0 1 6 37 12 81 l12 80 105 5 c89 4 113 9 156 32 41 22 62 26 113 25
59 -2 64 0 92 31 41 46 41 107 0 151 -64 68 -191 23 -191 -68 0 -15 -14 -28
-50 -46 -41 -21 -63 -25 -136 -25 l-86 0 6 38 c4 20 15 44 24 52 52 45 65 97
37 150 -40 78 -160 78 -200 0 -27 -51 -14 -110 32 -145 11 -9 11 -34 -2 -149
-8 -77 -16 -140 -18 -141 -8 -6 -177 -75 -181 -75 -3 0 -6 136 -6 303 l0 303
68 67 68 67 126 0 126 0 83 -85 83 -85 85 0 86 0 222 -222 223 -223 0 -120 0
-120 80 -80 80 -80 0 -57 0 -58 -106 0 -105 0 -50 107 c-43 90 -49 111 -40
130 6 13 11 40 11 59 0 51 -53 104 -104 104 -78 0 -134 -59 -122 -128 7 -43
30 -70 79 -91 34 -15 42 -27 95 -141 49 -105 63 -127 90 -140 l32 -15 0 -85 0
-85 -107 -92 c-106 -90 -109 -92 -160 -93 -43 0 -56 -5 -81 -30 -50 -49 -50
-111 0 -160 66 -66 188 -22 188 68 1 35 8 43 130 145 l130 109 0 114 0 114 68
0 69 0 42 -112 42 -113 -24 -20 c-94 -76 -257 -220 -257 -225 0 -4 70 -56 155
-116 l155 -109 0 -137 c0 -75 -5 -159 -12 -187 -13 -59 -14 -60 -143 -33 l-80
17 -27 75 c-24 69 -25 77 -11 99 56 88 -29 198 -131 170 -95 -26 -103 -179
-10 -209 29 -10 35 -19 59 -91 l27 -80 -49 -74 c-44 -69 -51 -75 -83 -75 -99
-1 -137 -137 -56 -202 27 -23 104 -23 135 -2 32 23 53 78 46 118 -6 28 0 43
40 100 39 55 52 67 69 62 11 -3 53 -10 91 -17 39 -6 73 -14 77 -18 4 -3 -15
-94 -43 -201 l-51 -195 -64 -65 -64 -66 0 -69 c0 -68 -1 -70 -42 -112 l-42
-43 -83 82 c-71 71 -81 85 -76 109 7 36 -23 96 -58 114 -49 26 -97 19 -135
-19 -29 -29 -34 -41 -34 -79 0 -37 5 -51 31 -76 24 -25 39 -31 72 -31 40 0 48
-5 127 -85 l84 -85 -49 -50 -49 -50 -126 0 -126 0 -64 -65 -64 -65 -219 0
c-140 0 -226 -4 -239 -11 -19 -10 -15 -16 63 -95 l84 -84 200 0 201 0 59 60
59 60 126 0 125 0 188 188 187 187 0 70 0 69 51 52 51 51 89 342 89 342 0 213
0 212 -90 63 c-49 35 -90 67 -90 71 0 4 41 42 90 84 53 46 90 85 90 96 0 10
-29 93 -65 184 l-65 166 0 108 0 107 -80 80 -80 80 0 120 0 120 -282 282 -283
283 -80 0 -80 0 -85 85 -85 85 -210 0 -210 0 -128 -128z m377 -325 c38 -27 -2
-95 -41 -71 -25 16 -29 55 -7 71 10 7 21 13 24 13 3 0 14 -6 24 -13z m-721
-59 c13 -42 -40 -76 -70 -45 -20 19 -10 64 15 70 21 4 49 -8 55 -25z m1131
-61 c22 -16 18 -55 -6 -71 -40 -24 -80 44 -42 71 10 7 21 13 24 13 3 0 14 -6
24 -13z m-1474 -141 c6 -8 10 -25 8 -38 -2 -19 -9 -23 -38 -23 -31 0 -35 3
-38 29 -5 42 41 64 68 32z m1726 -313 c9 -33 -16 -58 -49 -49 -36 9 -46 45
-18 67 27 22 59 13 67 -18z m-1752 -544 c17 -25 12 -45 -15 -60 -44 -23 -84
45 -41 70 26 16 39 13 56 -10z m1654 -301 c30 -30 0 -75 -43 -64 -19 5 -25 13
-25 35 0 38 41 56 68 29z m262 -327 c14 -26 3 -50 -26 -57 -42 -11 -72 34 -42
64 18 18 56 14 68 -7z m-90 -521 c17 -17 18 -24 10 -41 -15 -27 -34 -33 -59
-19 -26 13 -28 55 -3 69 24 15 29 14 52 -9z m-196 -383 c38 -27 -2 -95 -41
-71 -25 16 -29 55 -7 71 10 7 21 13 24 13 3 0 14 -6 24 -13z"/>
<path d="M2392 4698 c-17 -17 -17 -699 0 -716 8 -8 48 -12 115 -12 l102 0 12
38 c10 35 4 70 -60 351 -39 172 -76 321 -81 331 -12 23 -68 28 -88 8z"/>
<path d="M7250 3695 l0 -595 110 0 110 0 0 133 0 134 43 33 c23 18 47 37 53
41 6 5 57 -57 134 -166 l124 -175 128 0 c70 0 128 3 128 8 0 4 -79 112 -175
241 l-174 234 39 46 c22 25 95 107 163 181 l125 135 -127 3 -126 3 -68 -73
c-57 -62 -121 -135 -247 -280 l-25 -29 3 360 4 361 -111 0 -111 0 0 -595z"/>
<path d="M10834 4280 c-57 -23 -80 -100 -49 -160 23 -44 50 -54 143 -51 50 2
92 47 92 101 0 55 -23 95 -61 109 -37 13 -95 13 -125 1z"/>
<path d="M4774 4211 c-264 -72 -394 -254 -394 -552 0 -292 106 -470 323 -542
91 -30 323 -29 457 3 145 34 130 -4 130 325 l0 285 -220 0 -220 0 0 -95 0 -95
105 0 105 0 0 -119 0 -118 -31 -7 c-54 -11 -192 -6 -232 8 -62 22 -101 60
-135 129 -112 227 -26 517 171 583 94 32 241 19 358 -30 13 -6 24 10 53 79 20
48 36 91 36 96 0 4 -37 20 -82 35 -115 36 -318 44 -424 15z"/>
<path d="M8250 3666 l0 -558 283 4 c267 4 285 5 340 28 69 28 140 88 168 142
24 48 37 146 27 212 -13 91 -76 162 -169 190 -23 7 -22 8 16 25 115 52 165
212 110 346 -26 60 -80 102 -170 131 -75 24 -97 26 -342 31 l-263 6 0 -557z
m491 341 c45 -18 69 -56 69 -107 0 -32 -7 -48 -34 -78 l-34 -37 -126 -3 -126
-4 0 128 0 127 108 -6 c60 -3 124 -12 143 -20z m28 -442 c39 -23 71 -77 71
-118 0 -42 -36 -105 -73 -124 -24 -13 -63 -18 -154 -21 l-123 -4 0 147 0 147
123 -3 c100 -3 128 -8 156 -24z"/>
<path d="M5718 3955 c-107 -29 -200 -113 -239 -215 -31 -83 -44 -207 -30 -290
35 -212 148 -324 351 -349 119 -15 258 1 353 40 27 11 27 13 27 99 l0 88 -72
-26 c-55 -19 -99 -26 -178 -29 -95 -4 -109 -2 -150 19 -52 27 -98 94 -102 148
l-3 35 273 3 272 2 0 105 c0 80 -5 116 -20 157 -58 153 -178 229 -360 227 -41
0 -96 -7 -122 -14z m223 -176 c34 -24 69 -87 69 -124 l0 -25 -165 0 c-189 0
-184 -3 -139 88 26 51 43 67 93 83 39 13 109 2 142 -22z"/>
<path d="M6590 3956 c-163 -45 -247 -167 -265 -383 -12 -139 43 -314 119 -380
121 -107 387 -131 579 -52 27 11 27 13 27 99 l0 88 -72 -26 c-55 -19 -99 -26
-178 -29 -95 -4 -109 -2 -150 19 -52 27 -98 94 -102 148 l-3 35 273 3 272 2 0
105 c0 80 -5 116 -20 157 -58 153 -178 229 -360 227 -41 0 -95 -6 -120 -13z
m221 -177 c34 -24 69 -87 69 -124 l0 -25 -165 0 c-189 0 -184 -3 -139 88 26
51 43 67 93 83 39 13 109 2 142 -22z"/>
<path d="M9635 3958 c-16 -6 -49 -24 -72 -40 -36 -24 -53 -43 -101 -108 -7 -9
-20 24 -32 81 l-13 59 -88 0 -89 0 0 -420 0 -420 115 0 114 0 3 254 3 254 30
44 c44 62 105 90 200 90 l75 0 0 33 c0 17 3 66 6 108 l7 77 -64 -1 c-35 0 -77
-5 -94 -11z"/>
<path d="M10075 3960 c-63 -13 -156 -51 -161 -65 -4 -10 46 -126 61 -143 2 -2
40 8 86 23 106 33 199 36 237 8 35 -26 52 -59 52 -105 0 -36 -1 -37 -42 -42
-24 -3 -86 -7 -138 -10 -222 -12 -330 -88 -346 -243 -12 -115 41 -218 132
-260 50 -23 65 -25 157 -21 89 3 108 7 149 31 25 15 60 41 78 58 17 17 33 30
35 28 2 -2 12 -27 23 -54 l20 -50 81 -3 81 -3 0 314 c0 341 -4 374 -55 441
-16 22 -53 49 -93 68 -62 31 -72 32 -191 35 -69 1 -144 -2 -166 -7z m275 -513
c0 -109 -74 -187 -178 -187 -78 0 -111 30 -112 102 0 90 74 136 223 137 l67 1
0 -53z"/>
<path d="M11595 3957 c-59 -20 -86 -36 -127 -75 -21 -20 -39 -34 -41 -31 -3 2
-11 24 -19 49 l-15 45 -86 3 -87 3 0 -421 0 -420 115 0 116 0 -2 249 c-2 273
7 335 59 386 45 46 134 58 192 26 63 -33 69 -66 69 -383 l1 -278 115 0 115 0
0 315 c0 289 -2 319 -20 367 -44 118 -119 168 -260 174 -53 3 -100 -1 -125 -9z"/>
<path d="M12353 3960 c-60 -13 -115 -44 -152 -86 -42 -48 -51 -73 -51 -146 0
-123 54 -183 234 -260 55 -23 117 -55 138 -71 35 -25 39 -32 36 -65 -2 -31 -9
-40 -38 -55 -48 -25 -172 -16 -286 22 l-85 27 3 -94 3 -95 40 -14 c63 -22 223
-34 314 -23 192 22 294 127 278 287 -11 103 -76 172 -217 229 -161 65 -209
100 -195 145 18 57 135 52 328 -13 8 -3 26 36 67 139 9 21 4 24 -73 49 -90 29
-265 41 -344 24z"/>
<path d="M10780 3530 l0 -420 115 0 115 0 0 420 0 420 -115 0 -115 0 0 -420z"/>
<path d="M2392 3378 c-17 -17 -17 -729 0 -746 16 -16 73 -15 86 1 5 6 49 163
97 348 85 328 86 337 71 372 l-15 37 -113 0 c-75 0 -118 -4 -126 -12z"/>
</g>
</svg>
